<?xml version="1.0" encoding="iso-8859-1"?>
<!-- Uploaded to: SVG Repo, www.svgrepo.com, Generator: SVG Repo Mixer Tools -->
<svg fill="#f68a22" version="1.1" id="Layer_1" xmlns="http://www.w3.org/2000/svg" xmlns:xlink="http://www.w3.org/1999/xlink" 
	 viewBox="0 0 512 512" xml:space="preserve">
<g>
	<g>
		<path d="M0.001,0v512h102.146h307.708h102.145V0H0.001z M240.792,481.583H132.564V164.749h108.228V481.583z M240.792,134.331
			h-30.417v-12.167c0-25.158,20.468-45.626,45.626-45.626s45.626,20.468,45.626,45.626v12.167h-30.417V98.845h-30.417V134.331z
			 M379.437,481.583H271.209v0V164.749h108.228V481.583z M481.582,481.583h-71.728V134.331h-77.811v-12.167
			c0-41.93-34.113-76.043-76.043-76.043c-41.93,0-76.043,34.113-76.043,76.043v12.167h-77.811v347.252H30.418V30.417h451.165
			V481.583z"/>
	</g>
</g>
<g>
	<g>
		<rect x="427.473" y="230.653" width="36.501" height="30.417"/>
	</g>
</g>
<g>
	<g>
		<rect x="427.473" y="281.349" width="36.501" height="30.417"/>
	</g>
</g>
</svg>