<?xml version="1.0" encoding="utf-8"?><svg xmlns="http://www.w3.org/2000/svg" width="800" height="800" fill="none" viewBox="0 0 24 24"><path fill="#fff" d="M6 8c.1-.9 1.3-2.1 2.2-2 1 .2 1.7 1.7 2 2.4.4.6.2 1-.1 1.3-.4.3-1 .7-.8 1 .2.8 2.7 3.3 4 4 .4.3.7-.4 1-.8.2-.3.7-.4 1.3-.2l2 1.6c.4.2.5.7.3 1-.4.8-1.6 1.8-2.4 1.6C14 17.6 8 15.3 6 8.6V8Z"/><path fill="#fff" fill-rule="evenodd" d="M12 23c-1.2 0-1.9-.1-3-.5l-2.1 1A2 2 0 0 1 4 21.9v-2.3c-2.2-2-3-4.3-3-7.5a11 11 0 1 1 11 11Zm-6-4.4-.6-.6C3.7 16.5 3 14.7 3 12a9 9 0 1 1 9 9c-1 0-1.4 0-2.4-.4l-.8-.3L6 21.8v-3.2Z" clip-rule="evenodd"/></svg>