<svg id="Layer_1" data-name="Layer 1" xmlns="http://www.w3.org/2000/svg" viewBox="0 0 484.06 199.35"><defs><style>.cls-1{fill:#0b2541;}.cls-2{fill:#f68a22;}</style></defs><path class="cls-1" d="M309.57,165.73c-28.18.15-56.36.11-84.54.09-1.07,0-2.38.67-3.32-.74l46.21-63.85c-11.2,0-21.47-.07-31.73,0-3.38,0-6.81-.78-10.14.46h0c-1.62,1-2.35,2.66-3.38,4.1C211,122,200,138.68,187.6,154.22c-8.45,10.55-12.95,21.42-11,34.85a28.06,28.06,0,0,1,0,6.73c-.28,2.73,1,3.15,3.35,3.14q65.21-.1,130.4,0c2.75,0,3.61-.72,3.55-3.5-.18-8.54-.28-17.1,0-25.63C314,166.23,312.76,165.72,309.57,165.73ZM233,103.63l-.12,0,.06-.05Z"/><path class="cls-1" d="M463.27,150.53c-4.06.21-5.23-.93-5.22-5.1.13-42.93,0-85.87,0-128.8,0-1.6.51-3.29-.49-4.8-.65-.94-1.62-.55-2.46-.55-9.27,0-18.55.13-27.83-.07-3.29-.07-3.88,1.16-3.87,4.14.08,27.38,0,54.76,0,82.14,0,1.94-.22,4,1.7,5.26l.66,1c8.33,14,17.2,27.73,26.34,41.25.88,1.54,1.77,3.07,2.65,4.6h0c-6.08,1.88-7.47,1.49-10.66-3.44Q420.7,110,397.36,73.83h0c-4.55-7.34-9.74-14.29-14.21-21.64-6.66-10.93-13.63-21.64-20.65-32.33a39.85,39.85,0,0,0-5.18-8c-6.47-1.45-13-.07-19.51-.7-3.84-.37-4.63,1-4.62,4.69q.18,88.23.11,176.45c0,1.93.15,3.86.23,5.8a255.66,255.66,0,0,0,33.9,0c.69-1.65.4-3.33.17-5a6.23,6.23,0,0,0,.33-2.67c0-.14,0-.28,0-.42q0-44.08,0-88.18c0-.16,0-.33,0-.5a6.2,6.2,0,0,0-.33-2.59c.89-2.56-.54-5.39.75-8.35l9,13.31h0c2.09,3.24,4.16,6.49,6.28,9.71Q398,135.24,412.44,157c7.38,11.55,14.68,23.14,22.15,34.63,6.7,10.31,6.78,10.26,14,0,1.05-1,2.18-2,3.14-3.12,8.53-9.94,31.21-35,32.31-38C477,150.44,470.13,150.19,463.27,150.53ZM335.1,190.17v0C335.32,190,335.25,190.12,335.1,190.17Z"/><path class="cls-1" d="M309.46,11.12c-38.61.1-77.23.05-115.84.07-1.75,0-3.62-.42-5.18.87h0c-6,8.37-13.81,15.76-11.91,27.73.55,3.51,1,4.77,4.82,4.75,26.84-.17,53.68-.1,80.51-.06,1.26,0,3-.77,3.69.69s-.93,2.35-1.67,3.39Q248.58,70,233.26,91.29c-.56.79-1.84,1.47-1.21,2.65s1.89.6,2.87.61c11.55,0,23.09,0,34.63.14,2.61,0,4.07-1,5.48-3,4.91-7,10-13.83,15-20.77Q301.76,54.46,313.42,38c.1-7.47-.08-15,.42-22.41C314.1,11.75,312.88,11.11,309.46,11.12Z"/><path class="cls-1" d="M179.31,11.77c-.54-1.11-1.9-.46-2.88-.47q-16.6,0-33.2,0c-1.45,0-3-.41-4.29.74a11.16,11.16,0,0,0-1.16,1.33C125.94,32.12,114,50.76,102.3,69.58c-8,12.82-16.38,25.36-23.65,38.59a3.4,3.4,0,0,0-1.33,3.17q.15,30.79.33,61.6h0q0,12.15,0,24.31c2.19.21,4.39.35,6.59.44a48.43,48.43,0,0,0-6.47.47c.37.89,1.16.77,1.89.77,9.89,0,19.78-.11,29.67,0,2.84,0,3-1.17,3-3.5-.09-25.78,0-51.55-.15-77.33a13.9,13.9,0,0,1,2.55-8.35Q125.92,93.5,136.84,77q20.58-31.09,41-62.28C178.7,13.89,179.93,13.05,179.31,11.77ZM102.47,197.51a48.41,48.41,0,0,1-5.11.22c-1.52.05-3,.05-4.56,0,3.2-.06,6.39-.22,9.59-.43.22,0,.28-.19.17-.41C102.31,196.37,103,197.16,102.47,197.51Z"/><path class="cls-2" d="M90.59,72C86.07,65.26,82.39,58,77.41,51.61h0c-1.23-2-2.47-3.91-3.71-5.87l.9.4c-8-12.58-16-25.21-24.1-37.73-7.3-11.24-7.38-11.19-15.27,0-1.15,1.13-2.39,2.19-3.43,3.41C22.5,22.67,12.66,33,4,44.36c0,0,0,0,0,0L0,49H36.33q12.06,18.5,24.14,37c3.29,5.41,6.6,10.81,9.86,16.24,1,1.61,1.94,1.63,3,.21.69-.93,1.24-2,1.85-2.94q7.69-12.14,15.4-24.24A2.66,2.66,0,0,0,90.59,72Z"/><path class="cls-2" d="M412.28,156.88l24.58,38.2s3.47,9.75,9.27,0l37.94-43.92-39.9,29Z"/></svg>