<svg xmlns="http://www.w3.org/2000/svg" width="484.1" height="199.3"><svg xmlns="http://www.w3.org/2000/svg" id="SvgjsSvg1001" data-name="Layer 1" viewBox="0 0 484.1 199.3"><defs><style>.cls-1{fill:#0b2541}.cls-2{fill:#f68a22}@media (prefers-color-scheme:light){:root{filter:none}}@media (prefers-color-scheme:dark){:root{filter:none}}</style></defs><path d="M309.6 165.7c-28.2.2-56.4.1-84.6.1-1 0-2.4.7-3.3-.7l46.2-63.9h-31.7c-3.4 0-6.8-.8-10.2.5-1.6 1-2.3 2.6-3.3 4-11.7 16.3-22.7 33-35.1 48.5a43.3 43.3 0 0 0-11 34.9 28 28 0 0 1 0 6.7c-.3 2.7 1 3.1 3.4 3.1h130.3c2.8 0 3.7-.7 3.6-3.5-.2-8.5-.3-17 0-25.6.1-3.6-1.1-4-4.3-4Zm-76.6-62h-.1v-.1ZM463.3 150.5c-4 .2-5.3-.9-5.3-5 .2-43 0-86 0-128.9 0-1.6.6-3.3-.4-4.8-.7-1-1.7-.5-2.5-.5h-27.8c-3.3-.2-4 1-3.9 4v82.2c0 2-.2 4 1.7 5.2l.7 1c8.3 14 17.2 27.8 26.3 41.3l2.6 4.6c-6 1.9-7.4 1.5-10.6-3.4l-46.7-72.4c-4.6-7.3-9.8-14.3-14.2-21.6a1134 1134 0 0 0-20.7-32.3 39.9 39.9 0 0 0-5.2-8c-6.4-1.5-13-.1-19.5-.7-3.8-.4-4.6 1-4.6 4.7q.2 88.2.1 176.4l.2 5.8a255.7 255.7 0 0 0 34 0c.6-1.6.3-3.3.1-5a6.2 6.2 0 0 0 .3-2.7V101.3a6.2 6.2 0 0 0-.3-2.6c.9-2.5-.5-5.3.8-8.3l9 13.3 6.2 9.7 28.8 43.6c7.4 11.6 14.7 23.1 22.2 34.6 6.7 10.3 6.8 10.3 14 0l3.1-3c8.6-10 31.2-35 32.3-38-7-.2-13.9-.4-20.7 0ZM335 190.2c.2-.2.1 0 0 0ZM309.5 11.1H193.6c-1.7 0-3.6-.3-5.2 1-6 8.3-13.8 15.7-11.9 27.7.6 3.5 1 4.8 4.8 4.7 26.9-.1 53.7 0 80.6 0 1.2 0 3-.8 3.6.7s-.9 2.3-1.6 3.4l-30.6 42.7c-.6.8-1.9 1.5-1.3 2.6s2 .6 3 .7h34.5c2.7 0 4.1-1 5.5-3L290 71q11.8-16.4 23.4-32.9c.1-7.5 0-15 .4-22.4.3-3.8-1-4.5-4.3-4.5ZM179.3 11.8c-.5-1.1-1.9-.5-2.9-.5h-33.2c-1.4 0-3-.4-4.3.7a11.2 11.2 0 0 0-1.1 1.4C125.9 32 114 50.8 102.3 69.6c-8 12.8-16.4 25.3-23.6 38.6a3.4 3.4 0 0 0-1.4 3.1l.4 61.6v24.3c2.1.3 4.3.4 6.5.5a48.4 48.4 0 0 0-6.4.5c.3.9 1.1.7 1.9.7h29.6c2.9 0 3-1.1 3-3.5l-.1-77.3a13.9 13.9 0 0 1 2.5-8.3Q126 93.5 136.8 77q20.6-31 41-62.3c.9-.8 2.1-1.6 1.5-3Zm-76.8 185.7a48.4 48.4 0 0 1-5.1.2 69.3 69.3 0 0 1 5-.4c.2 0 .3-.2.2-.4-.3-.5.4.3-.1.6Z" class="cls-1"/><path d="M90.6 72c-4.5-6.7-8.2-14-13.2-20.4l-3.7-5.9.9.4L50.5 8.4c-7.3-11.2-7.4-11.2-15.3 0-1.1 1.1-2.4 2.2-3.4 3.4C22.5 22.7 12.7 33 4 44.4L0 49h36.3l24.2 37 9.8 16.2c1 1.6 2 1.7 3 .2l1.9-2.9 15.4-24.2a2.7 2.7 0 0 0 0-3.3ZM412.3 156.9l24.6 38.2s3.4 9.7 9.2 0l38-44-40 29Z" class="cls-2"/></svg></svg>